<svg width="1466" height="200" viewBox="0 0 1466 200" fill="none" xmlns="http://www.w3.org/2000/svg">
<path fill-rule="evenodd" clip-rule="evenodd" d="M36.9748 0H0V184.874H36.9748V0ZM83.1933 0H46.2185L46.2185 175.63H36.9748V184.874H46.2185H83.1933V0ZM101.681 0H138.655H147.899H184.874V184.874H147.899L147.899 166.387H138.655L138.655 184.874H101.681V0ZM138.655 157.143H147.899V9.2437H138.655V157.143ZM240.336 0H203.361V184.874H240.336L240.336 9.2437H249.58V0H240.336ZM258.823 0H295.798H314.286V9.2437H295.798L295.798 184.874H258.823V0ZM83.1933 194.118V184.874V175.63H92.437V184.874V194.118H83.1933ZM728.118 52.1009H718.349L702.199 79.5694V52.1009H693.034V92.437H702.829L718.927 64.9422V92.437H728.118V52.1009ZM722.866 38.2353H715.75C715.732 39.5133 715.321 40.6425 714.515 41.6229C713.728 42.6033 712.406 43.0935 710.55 43.0935C708.659 43.0935 707.32 42.6033 706.532 41.6229C705.762 40.625 705.377 39.4958 705.377 38.2353H698.313C698.295 41.299 699.389 43.785 701.595 45.6933C703.819 47.5841 706.804 48.5294 710.55 48.5294C714.332 48.5294 717.325 47.5841 719.531 45.6933C721.755 43.785 722.866 41.299 722.866 38.2353ZM405.62 105.147L406.329 84.2962H399.501V38.6555H390.073V84.3488H365.914V38.6555H356.565V92.437H392.384H396.166V105.147H405.62ZM439.161 52.1009L423.011 79.5694V52.1009H413.846V92.437H423.641L439.739 64.9422V92.437H448.93V52.1009H439.161ZM476.996 106.145V93.2248C474.037 93.2248 471.332 92.7259 468.881 91.728C466.43 90.7301 464.312 89.312 462.526 87.4738C460.758 85.6355 459.384 83.4472 458.403 80.9086C457.44 78.3526 456.959 75.5252 456.959 72.4265C456.959 69.3278 457.44 66.5004 458.403 63.9444C459.384 61.3883 460.758 59.1912 462.526 57.353C464.312 55.4972 466.43 54.0704 468.881 53.0725C471.332 52.0746 474.037 51.5757 476.996 51.5757V38.6555H486.528V51.5757C489.487 51.5757 492.192 52.0746 494.643 53.0725C497.094 54.0704 499.203 55.4972 500.972 57.353C502.757 59.1912 504.132 61.3883 505.094 63.9444C506.075 66.5004 506.565 69.3278 506.565 72.4265C506.565 75.5252 506.075 78.3526 505.094 80.9086C504.132 83.4472 502.757 85.6355 500.972 87.4738C499.203 89.312 497.094 90.7301 494.643 91.728C492.192 92.7259 489.487 93.2248 486.528 93.2248V106.145H476.996ZM472.531 60.2941C473.827 59.5939 475.315 59.2437 476.996 59.2437V85.5567C474.755 85.5567 472.864 84.9615 471.323 83.771C469.8 82.5806 468.645 80.9962 467.857 79.0179C467.069 77.0221 466.675 74.825 466.675 72.4265C466.675 70.6233 466.894 68.9338 467.332 67.3582C467.787 65.7651 468.444 64.3645 469.301 63.1565C470.177 61.931 471.253 60.9769 472.531 60.2941ZM486.528 59.2437V85.5567C488.226 85.5567 489.715 85.2154 490.993 84.5326C492.271 83.8498 493.339 82.9044 494.196 81.6964C495.072 80.4885 495.728 79.0967 496.166 77.521C496.604 75.9279 496.822 74.2297 496.822 72.4265C496.822 70.028 496.437 67.8309 495.667 65.8351C494.897 63.8393 493.741 62.2462 492.201 61.0557C490.677 59.8477 488.787 59.2437 486.528 59.2437ZM514.588 52.1009V107.563H524.094V86.082H524.488C524.996 87.0623 525.705 88.104 526.615 89.207C527.543 90.2924 528.768 91.2203 530.291 91.9906C531.815 92.7609 533.732 93.146 536.042 93.146C539.211 93.146 542.047 92.332 544.551 90.7038C547.054 89.0757 549.033 86.7122 550.486 83.6135C551.939 80.5147 552.665 76.7507 552.665 72.3214C552.665 67.8397 551.921 64.0581 550.433 60.9769C548.963 57.8782 546.967 55.541 544.446 53.9654C541.942 52.3722 539.132 51.5757 536.016 51.5757C533.653 51.5757 531.709 51.9783 530.186 52.7836C528.663 53.5715 527.455 54.5256 526.562 55.646C525.67 56.749 524.978 57.7906 524.488 58.771H523.936V52.1009H514.588ZM525.013 79.1229C524.278 77.1621 523.91 74.8775 523.91 72.2689C523.91 69.6604 524.269 67.3932 524.987 65.4675C525.722 63.5417 526.799 62.0448 528.217 60.9769C529.635 59.909 531.359 59.375 533.39 59.375C535.508 59.375 537.277 59.9265 538.695 61.0294C540.113 62.1324 541.181 63.6555 541.899 65.5988C542.616 67.542 542.975 69.7654 542.975 72.2689C542.975 74.7899 542.608 77.0396 541.872 79.0179C541.155 80.9787 540.087 82.528 538.669 83.666C537.25 84.7864 535.491 85.3467 533.39 85.3467C531.377 85.3467 529.661 84.8039 528.243 83.7185C526.843 82.6156 525.766 81.0837 525.013 79.1229ZM578.401 93.2248C574.462 93.2248 571.048 92.3582 568.159 90.625C565.27 88.8918 563.029 86.4671 561.436 83.3509C559.861 80.2346 559.073 76.5932 559.073 72.4265C559.073 68.2598 559.861 64.6096 561.436 61.4759C563.029 58.3421 565.27 55.9086 568.159 54.1754C571.048 52.4423 574.462 51.5757 578.401 51.5757C582.34 51.5757 585.754 52.4423 588.642 54.1754C591.531 55.9086 593.763 58.3421 595.339 61.4759C596.932 64.6096 597.728 68.2598 597.728 72.4265C597.728 76.5932 596.932 80.2346 595.339 83.3509C593.763 86.4671 591.531 88.8918 588.642 90.625C585.754 92.3582 582.34 93.2248 578.401 93.2248ZM578.453 85.6093C580.589 85.6093 582.375 85.0228 583.81 83.8498C585.246 82.6593 586.314 81.0662 587.014 79.0704C587.732 77.0746 588.091 74.8512 588.091 72.4002C588.091 69.9317 587.732 67.6996 587.014 65.7038C586.314 63.6905 585.246 62.0886 583.81 60.8981C582.375 59.7077 580.589 59.1124 578.453 59.1124C576.265 59.1124 574.444 59.7077 572.991 60.8981C571.555 62.0886 570.479 63.6905 569.761 65.7038C569.061 67.6996 568.711 69.9317 568.711 72.4002C568.711 74.8512 569.061 77.0746 569.761 79.0704C570.479 81.0662 571.555 82.6593 572.991 83.8498C574.444 85.0228 576.265 85.6093 578.453 85.6093ZM622.735 52.1009H605.797V92.437H625.335C628.486 92.437 631.165 91.9906 633.37 91.0977C635.594 90.1873 637.283 88.9181 638.439 87.2899C639.612 85.6443 640.198 83.7098 640.198 81.4864C640.198 79.5956 639.743 77.9237 638.833 76.4706C637.922 75.0175 636.662 73.8446 635.051 72.9517C633.458 72.0588 631.602 71.5249 629.484 71.3498C632.18 70.8596 634.307 69.9055 635.865 68.4874C637.441 67.0518 638.229 65.2049 638.229 62.9465C638.229 59.5326 636.837 56.8715 634.053 54.9633C631.287 53.055 627.514 52.1009 622.735 52.1009ZM625.335 84.9528H614.699V74.9475H625.335C627.085 74.9475 628.46 75.4289 629.458 76.3918C630.456 77.3372 630.954 78.6415 630.954 80.3046C630.954 81.7402 630.456 82.8782 629.458 83.7185C628.46 84.5413 627.085 84.9528 625.335 84.9528ZM622.919 68.8025H614.699V59.7164H622.735C624.731 59.7164 626.289 60.1103 627.409 60.8981C628.547 61.6859 629.116 62.7714 629.116 64.1544C629.116 65.1173 628.871 65.9489 628.381 66.6492C627.891 67.332 627.182 67.8659 626.254 68.2511C625.326 68.6187 624.214 68.8025 622.919 68.8025ZM665.638 93.2248C661.699 93.2248 658.285 92.3582 655.396 90.625C652.508 88.8918 650.267 86.4671 648.674 83.3509C647.098 80.2346 646.31 76.5932 646.31 72.4265C646.31 68.2598 647.098 64.6096 648.674 61.4759C650.267 58.3421 652.508 55.9086 655.396 54.1754C658.285 52.4423 661.699 51.5757 665.638 51.5757C669.577 51.5757 672.991 52.4423 675.88 54.1754C678.768 55.9086 681 58.3421 682.576 61.4759C684.169 64.6096 684.966 68.2598 684.966 72.4265C684.966 76.5932 684.169 80.2346 682.576 83.3509C681 86.4671 678.768 88.8918 675.88 90.625C672.991 92.3582 669.577 93.2248 665.638 93.2248ZM665.691 85.6093C667.826 85.6093 669.612 85.0228 671.048 83.8498C672.483 82.6593 673.551 81.0662 674.251 79.0704C674.969 77.0746 675.328 74.8512 675.328 72.4002C675.328 69.9317 674.969 67.6996 674.251 65.7038C673.551 63.6905 672.483 62.0886 671.048 60.8981C669.612 59.7077 667.826 59.1124 665.691 59.1124C663.502 59.1124 661.681 59.7077 660.228 60.8981C658.793 62.0886 657.716 63.6905 656.998 65.7038C656.298 67.6996 655.948 69.9317 655.948 72.4002C655.948 74.8512 656.298 77.0746 656.998 79.0704C657.716 81.0662 658.793 82.6593 660.228 83.8498C661.681 85.0228 663.502 85.6093 665.691 85.6093ZM767.831 93.2511C765.275 93.2511 762.973 92.7959 760.924 91.8855C758.893 90.9577 757.283 89.5921 756.092 87.7889C754.919 85.9857 754.333 83.7623 754.333 81.1187C754.333 78.8428 754.753 76.9608 755.593 75.4727C756.434 73.9846 757.58 72.7941 759.034 71.9013C760.487 71.0084 762.123 70.3344 763.944 69.8792C765.782 69.4065 767.682 69.0651 769.643 68.8551C772.006 68.61 773.923 68.3911 775.394 68.1985C776.864 67.9885 777.932 67.6733 778.598 67.2532C779.28 66.8155 779.622 66.1415 779.622 65.2311V65.0736C779.622 63.0953 779.035 61.5634 777.862 60.478C776.689 59.3925 775 58.8498 772.794 58.8498C770.466 58.8498 768.619 59.3575 767.253 60.3729C765.905 61.3883 764.995 62.5876 764.522 63.9706L755.646 62.7101C756.346 60.2591 757.502 58.2108 759.112 56.5651C760.723 54.902 762.692 53.659 765.021 52.8362C767.349 51.9958 769.923 51.5757 772.741 51.5757C774.685 51.5757 776.619 51.8032 778.545 52.2584C780.471 52.7136 782.23 53.4664 783.823 54.5168C785.417 55.5497 786.695 56.9591 787.657 58.7448C788.638 60.5305 789.128 62.7626 789.128 65.4412V92.437H779.989V86.896H779.674C779.096 88.0165 778.282 89.0669 777.232 90.0473C776.199 91.0102 774.895 91.7892 773.319 92.3845C771.761 92.9622 769.932 93.2511 767.831 93.2511ZM770.299 86.2658C772.208 86.2658 773.862 85.8894 775.263 85.1366C776.663 84.3663 777.74 83.3509 778.493 82.0904C779.263 80.8299 779.648 79.4556 779.648 77.9675V73.2143C779.35 73.4594 778.843 73.687 778.125 73.8971C777.425 74.1072 776.637 74.291 775.761 74.4485C774.886 74.6061 774.019 74.7462 773.162 74.8687C772.304 74.9913 771.56 75.0963 770.93 75.1838C769.511 75.3764 768.242 75.6916 767.122 76.1292C766.001 76.5669 765.117 77.1796 764.469 77.9675C763.822 78.7378 763.498 79.7357 763.498 80.9612C763.498 82.7119 764.137 84.0336 765.415 84.9265C766.693 85.8194 768.321 86.2658 770.299 86.2658ZM798.687 52.1009V107.563H808.193V86.082H808.587C809.095 87.0623 809.804 88.104 810.714 89.207C811.642 90.2924 812.867 91.2203 814.391 91.9906C815.914 92.7609 817.831 93.146 820.142 93.146C823.31 93.146 826.147 92.332 828.65 90.7038C831.154 89.0757 833.132 86.7122 834.585 83.6135C836.038 80.5147 836.765 76.7507 836.765 72.3214C836.765 67.8397 836.021 64.0581 834.532 60.9769C833.062 57.8782 831.066 55.541 828.545 53.9654C826.042 52.3722 823.232 51.5757 820.115 51.5757C817.752 51.5757 815.809 51.9783 814.286 52.7836C812.762 53.5715 811.555 54.5256 810.662 55.646C809.769 56.749 809.077 57.7906 808.587 58.771H808.036V52.1009H798.687ZM809.112 79.1229C808.377 77.1621 808.009 74.8775 808.009 72.2689C808.009 69.6604 808.368 67.3932 809.086 65.4675C809.821 63.5417 810.898 62.0448 812.316 60.9769C813.734 59.909 815.459 59.375 817.489 59.375C819.608 59.375 821.376 59.9265 822.794 61.0294C824.212 62.1324 825.28 63.6555 825.998 65.5988C826.716 67.542 827.074 69.7654 827.074 72.2689C827.074 74.7899 826.707 77.0396 825.971 79.0179C825.254 80.9787 824.186 82.528 822.768 83.666C821.35 84.7864 819.59 85.3467 817.489 85.3467C815.476 85.3467 813.76 84.8039 812.342 83.7185C810.942 82.6156 809.865 81.0837 809.112 79.1229ZM851.162 52.1009L859.303 66.9906L867.575 52.1009H877.632L865.474 72.2689L877.843 92.437H867.837L859.303 77.9149L850.847 92.437H840.763L853.053 72.2689L841.078 52.1009H851.162ZM920.069 52.1009H910.301L894.15 79.5694V52.1009H884.985V92.437H894.781L910.878 64.9422V92.437H920.069V52.1009ZM929.832 52.1009H946.77C951.549 52.1009 955.322 53.055 958.088 54.9633C960.872 56.8715 962.263 59.5326 962.263 62.9465C962.263 65.2049 961.476 67.0518 959.9 68.4874C958.342 69.9055 956.215 70.8596 953.519 71.3498C955.637 71.5249 957.493 72.0588 959.086 72.9517C960.697 73.8446 961.957 75.0175 962.867 76.4706C963.778 77.9237 964.233 79.5956 964.233 81.4864C964.233 83.7098 963.646 85.6443 962.474 87.2899C961.318 88.9181 959.629 90.1873 957.405 91.0977C955.199 91.9906 952.521 92.437 949.37 92.437H929.832V52.1009ZM938.734 84.9528H949.37C951.12 84.9528 952.495 84.5413 953.492 83.7185C954.49 82.8782 954.989 81.7402 954.989 80.3046C954.989 78.6415 954.49 77.3372 953.492 76.3918C952.495 75.4289 951.12 74.9475 949.37 74.9475H938.734V84.9528ZM938.734 68.8025H946.954C948.249 68.8025 949.361 68.6187 950.289 68.2511C951.217 67.8659 951.926 67.332 952.416 66.6492C952.906 65.9489 953.151 65.1173 953.151 64.1544C953.151 62.7714 952.582 61.6859 951.444 60.8981C950.324 60.1103 948.766 59.7164 946.77 59.7164H938.734V68.8025ZM382.826 152.337V144.538H356.145V184.874H365.441V152.337H382.826ZM406.381 185.662C402.442 185.662 399.028 184.795 396.14 183.062C393.251 181.329 391.01 178.904 389.417 175.788C387.841 172.672 387.054 169.03 387.054 164.863C387.054 160.697 387.841 157.047 389.417 153.913C391.01 150.779 393.251 148.346 396.14 146.612C399.028 144.879 402.442 144.013 406.381 144.013C410.32 144.013 413.734 144.879 416.623 146.612C419.512 148.346 421.744 150.779 423.319 153.913C424.912 157.047 425.709 160.697 425.709 164.863C425.709 169.03 424.912 172.672 423.319 175.788C421.744 178.904 419.512 181.329 416.623 183.062C413.734 184.795 410.32 185.662 406.381 185.662ZM406.434 178.046C408.57 178.046 410.355 177.46 411.791 176.287C413.227 175.096 414.294 173.503 414.995 171.507C415.712 169.512 416.071 167.288 416.071 164.837C416.071 162.369 415.712 160.137 414.995 158.141C414.294 156.127 413.227 154.526 411.791 153.335C410.355 152.145 408.57 151.549 406.434 151.549C404.245 151.549 402.425 152.145 400.972 153.335C399.536 154.526 398.459 156.127 397.742 158.141C397.041 160.137 396.691 162.369 396.691 164.837C396.691 167.288 397.041 169.512 397.742 171.507C398.459 173.503 399.536 175.096 400.972 176.287C402.425 177.46 404.245 178.046 406.434 178.046ZM440.999 183.009C443.888 184.778 447.345 185.662 451.372 185.662C454.751 185.662 457.692 185.049 460.196 183.824C462.699 182.581 464.677 180.865 466.13 178.676C467.584 176.471 468.424 173.941 468.651 171.087H459.565C459.285 172.54 458.769 173.775 458.016 174.79C457.263 175.805 456.327 176.584 455.206 177.127C454.103 177.652 452.851 177.915 451.451 177.915C449.473 177.915 447.748 177.39 446.278 176.339C444.824 175.271 443.695 173.757 442.89 171.796C442.085 169.818 441.682 167.454 441.682 164.706C441.682 161.992 442.085 159.664 442.89 157.721C443.713 155.777 444.859 154.289 446.33 153.256C447.801 152.206 449.508 151.681 451.451 151.681C453.744 151.681 455.574 152.337 456.939 153.65C458.322 154.946 459.198 156.565 459.565 158.508H468.651C468.441 155.602 467.584 153.064 466.078 150.893C464.572 148.704 462.55 147.015 460.012 145.825C457.491 144.617 454.593 144.013 451.32 144.013C447.38 144.013 443.967 144.897 441.078 146.665C438.207 148.416 435.983 150.867 434.408 154.018C432.832 157.152 432.044 160.767 432.044 164.863C432.044 168.943 432.815 172.549 434.355 175.683C435.913 178.799 438.128 181.241 440.999 183.009ZM494.761 198.582V185.662C491.802 185.662 489.097 185.163 486.646 184.165C484.195 183.167 482.077 181.749 480.291 179.911C478.523 178.072 477.149 175.884 476.169 173.346C475.206 170.79 474.724 167.962 474.724 164.863C474.724 161.765 475.206 158.937 476.169 156.381C477.149 153.825 478.523 151.628 480.291 149.79C482.077 147.934 484.195 146.507 486.646 145.509C489.097 144.512 491.802 144.013 494.761 144.013V131.092H504.294V144.013C507.252 144.013 509.957 144.512 512.408 145.509C514.859 146.507 516.969 147.934 518.737 149.79C520.523 151.628 521.897 153.825 522.86 156.381C523.84 158.937 524.33 161.765 524.33 164.863C524.33 167.962 523.84 170.79 522.86 173.346C521.897 175.884 520.523 178.072 518.737 179.911C516.969 181.749 514.859 183.167 512.408 184.165C509.957 185.163 507.252 185.662 504.294 185.662V198.582H494.761ZM490.297 152.731C491.592 152.031 493.08 151.681 494.761 151.681V177.994C492.52 177.994 490.629 177.398 489.089 176.208C487.566 175.018 486.41 173.433 485.622 171.455C484.835 169.459 484.441 167.262 484.441 164.863C484.441 163.06 484.659 161.371 485.097 159.795C485.552 158.202 486.209 156.801 487.067 155.593C487.942 154.368 489.019 153.414 490.297 152.731ZM509.966 153.493C508.443 152.285 506.552 151.681 504.294 151.681V177.994C505.992 177.994 507.48 177.652 508.758 176.97C510.036 176.287 511.104 175.341 511.962 174.133C512.837 172.925 513.493 171.534 513.931 169.958C514.369 168.365 514.588 166.667 514.588 164.863C514.588 162.465 514.202 160.268 513.432 158.272C512.662 156.276 511.506 154.683 509.966 153.493ZM567.437 144.538H557.668L541.518 172.006V144.538H532.353V184.874H542.148L558.246 157.379V184.874H567.437V144.538ZM586.364 168.566H601.989V184.874H611.128V144.538H601.989V160.767H586.364V144.538H577.199V184.874H586.364V168.566ZM625.446 184.322C627.495 185.233 629.797 185.688 632.353 185.688C634.454 185.688 636.283 185.399 637.841 184.821C639.417 184.226 640.721 183.447 641.754 182.484C642.805 181.504 643.619 180.453 644.196 179.333H644.511V184.874H653.65V157.878C653.65 155.2 653.16 152.967 652.18 151.182C651.217 149.396 649.939 147.987 648.345 146.954C646.752 145.903 644.993 145.151 643.067 144.695C641.141 144.24 639.207 144.013 637.264 144.013C634.445 144.013 631.871 144.433 629.543 145.273C627.215 146.096 625.245 147.339 623.634 149.002C622.024 150.648 620.868 152.696 620.168 155.147L629.044 156.408C629.517 155.025 630.427 153.825 631.775 152.81C633.141 151.794 634.988 151.287 637.316 151.287C639.522 151.287 641.211 151.829 642.384 152.915C643.557 154 644.144 155.532 644.144 157.511V157.668C644.144 158.578 643.802 159.252 643.12 159.69C642.454 160.11 641.386 160.425 639.916 160.636C638.445 160.828 636.528 161.047 634.165 161.292C632.204 161.502 630.305 161.844 628.466 162.316C626.646 162.771 625.009 163.445 623.556 164.338C622.102 165.231 620.956 166.422 620.115 167.91C619.275 169.398 618.855 171.28 618.855 173.556C618.855 176.199 619.441 178.423 620.614 180.226C621.805 182.029 623.416 183.395 625.446 184.322ZM639.785 177.574C638.384 178.326 636.73 178.703 634.821 178.703C632.843 178.703 631.215 178.256 629.937 177.363C628.659 176.471 628.02 175.149 628.02 173.398C628.02 172.173 628.344 171.175 628.991 170.404C629.639 169.617 630.523 169.004 631.644 168.566C632.764 168.129 634.034 167.813 635.452 167.621C635.68 167.589 635.924 167.555 636.182 167.519C636.636 167.455 637.137 167.384 637.684 167.306C638.542 167.183 639.408 167.043 640.284 166.886C641.159 166.728 641.947 166.544 642.647 166.334C643.365 166.124 643.872 165.896 644.17 165.651V170.404C644.17 171.893 643.785 173.267 643.015 174.527C642.262 175.788 641.185 176.803 639.785 177.574ZM672.374 168.566H687.999V184.874H697.138V144.538H687.999V160.767H672.374V144.538H663.209V184.874H672.374V168.566ZM713.977 183.009C716.866 184.778 720.323 185.662 724.35 185.662C727.729 185.662 730.67 185.049 733.173 183.824C735.677 182.581 737.655 180.865 739.108 178.676C740.561 176.471 741.402 173.941 741.629 171.087H732.543C732.263 172.54 731.747 173.775 730.994 174.79C730.241 175.805 729.304 176.584 728.184 177.127C727.081 177.652 725.829 177.915 724.429 177.915C722.45 177.915 720.726 177.39 719.255 176.339C717.802 175.271 716.673 173.757 715.868 171.796C715.062 169.818 714.66 167.454 714.66 164.706C714.66 161.992 715.062 159.664 715.868 157.721C716.691 155.777 717.837 154.289 719.308 153.256C720.779 152.206 722.485 151.681 724.429 151.681C726.722 151.681 728.552 152.337 729.917 153.65C731.3 154.946 732.176 156.565 732.543 158.508H741.629C741.419 155.602 740.561 153.064 739.056 150.893C737.55 148.704 735.528 147.015 732.99 145.825C730.469 144.617 727.571 144.013 724.297 144.013C720.358 144.013 716.944 144.897 714.056 146.665C711.185 148.416 708.961 150.867 707.386 154.018C705.81 157.152 705.022 160.767 705.022 164.863C705.022 168.943 705.793 172.549 707.333 175.683C708.891 178.799 711.106 181.241 713.977 183.009ZM767.03 185.662C763.091 185.662 759.677 184.795 756.788 183.062C753.9 181.329 751.659 178.904 750.066 175.788C748.49 172.672 747.702 169.03 747.702 164.863C747.702 160.697 748.49 157.047 750.066 153.913C751.659 150.779 753.9 148.346 756.788 146.612C759.677 144.879 763.091 144.013 767.03 144.013C770.969 144.013 774.383 144.879 777.271 146.612C780.16 148.346 782.392 150.779 783.968 153.913C785.561 157.047 786.358 160.697 786.358 164.863C786.358 169.03 785.561 172.672 783.968 175.788C782.392 178.904 780.16 181.329 777.271 183.062C774.383 184.795 770.969 185.662 767.03 185.662ZM767.082 178.046C769.218 178.046 771.004 177.46 772.439 176.287C773.875 175.096 774.943 173.503 775.643 171.507C776.361 169.512 776.72 167.288 776.72 164.837C776.72 162.369 776.361 160.137 775.643 158.141C774.943 156.127 773.875 154.526 772.439 153.335C771.004 152.145 769.218 151.549 767.082 151.549C764.894 151.549 763.073 152.145 761.62 153.335C760.185 154.526 759.108 156.127 758.39 158.141C757.69 160.137 757.34 162.369 757.34 164.837C757.34 167.288 757.69 169.512 758.39 171.507C759.108 173.503 760.185 175.096 761.62 176.287C763.073 177.46 764.894 178.046 767.082 178.046ZM811.364 144.538H794.426V184.874H813.964C817.115 184.874 819.794 184.428 822 183.535C824.223 182.624 825.912 181.355 827.068 179.727C828.241 178.081 828.827 176.147 828.827 173.923C828.827 172.033 828.372 170.361 827.462 168.908C826.551 167.454 825.291 166.282 823.68 165.389C822.087 164.496 820.231 163.962 818.113 163.787C820.809 163.297 822.936 162.342 824.494 160.924C826.07 159.489 826.858 157.642 826.858 155.383C826.858 151.97 825.466 149.308 822.682 147.4C819.916 145.492 816.143 144.538 811.364 144.538ZM813.964 177.39H803.328V167.384H813.964C815.715 167.384 817.089 167.866 818.087 168.829C819.085 169.774 819.584 171.078 819.584 172.742C819.584 174.177 819.085 175.315 818.087 176.155C817.089 176.978 815.715 177.39 813.964 177.39ZM811.548 161.24H803.328V152.153H811.364C813.36 152.153 814.918 152.547 816.038 153.335C817.176 154.123 817.745 155.208 817.745 156.591C817.745 157.554 817.5 158.386 817.01 159.086C816.52 159.769 815.811 160.303 814.883 160.688C813.955 161.056 812.843 161.24 811.548 161.24ZM880.331 144.538H890.1V184.874H880.908V157.379L864.811 184.874H855.016V144.538H864.181V172.006L880.331 144.538ZM944.886 152.337V144.538H918.205V184.874H927.501V152.337H944.886ZM968.441 185.662C964.502 185.662 961.088 184.795 958.2 183.062C955.311 181.329 953.07 178.904 951.477 175.788C949.901 172.672 949.114 169.03 949.114 164.863C949.114 160.697 949.901 157.047 951.477 153.913C953.07 150.779 955.311 148.346 958.2 146.612C961.088 144.879 964.502 144.013 968.441 144.013C972.38 144.013 975.794 144.879 978.683 146.612C981.571 148.346 983.804 150.779 985.379 153.913C986.972 157.047 987.769 160.697 987.769 164.863C987.769 169.03 986.972 172.672 985.379 175.788C983.804 178.904 981.571 181.329 978.683 183.062C975.794 184.795 972.38 185.662 968.441 185.662ZM968.494 178.046C970.63 178.046 972.415 177.46 973.851 176.287C975.286 175.096 976.354 173.503 977.055 171.507C977.773 169.512 978.131 167.288 978.131 164.837C978.131 162.369 977.773 160.137 977.055 158.141C976.354 156.127 975.286 154.526 973.851 153.335C972.415 152.145 970.63 151.549 968.494 151.549C966.305 151.549 964.485 152.145 963.031 153.335C961.596 154.526 960.519 156.127 959.802 158.141C959.101 160.137 958.751 162.369 958.751 164.837C958.751 167.288 959.101 169.512 959.802 171.507C960.519 173.503 961.596 175.096 963.031 176.287C964.485 177.46 966.305 178.046 968.494 178.046ZM1003.06 183.009C1005.95 184.778 1009.41 185.662 1013.43 185.662C1016.81 185.662 1019.75 185.049 1022.26 183.824C1024.76 182.581 1026.74 180.865 1028.19 178.676C1029.64 176.471 1030.48 173.941 1030.71 171.087H1021.63C1021.35 172.54 1020.83 173.775 1020.08 174.79C1019.32 175.805 1018.39 176.584 1017.27 177.127C1016.16 177.652 1014.91 177.915 1013.51 177.915C1011.53 177.915 1009.81 177.39 1008.34 176.339C1006.88 175.271 1005.76 173.757 1004.95 171.796C1004.14 169.818 1003.74 167.454 1003.74 164.706C1003.74 161.992 1004.14 159.664 1004.95 157.721C1005.77 155.777 1006.92 154.289 1008.39 153.256C1009.86 152.206 1011.57 151.681 1013.51 151.681C1015.8 151.681 1017.63 152.337 1019 153.65C1020.38 154.946 1021.26 156.565 1021.63 158.508H1030.71C1030.5 155.602 1029.64 153.064 1028.14 150.893C1026.63 148.704 1024.61 147.015 1022.07 145.825C1019.55 144.617 1016.65 144.013 1013.38 144.013C1009.44 144.013 1006.03 144.897 1003.14 146.665C1000.27 148.416 998.043 150.867 996.468 154.018C994.892 157.152 994.104 160.767 994.104 164.863C994.104 168.943 994.875 172.549 996.415 175.683C997.973 178.799 1000.19 181.241 1003.06 183.009ZM1044.43 200C1043.13 200 1041.93 199.895 1040.83 199.685C1039.74 199.492 1038.88 199.265 1038.23 199.002L1040.43 191.597C1041.82 191.999 1043.05 192.192 1044.14 192.174C1045.22 192.157 1046.18 191.815 1047 191.15C1047.84 190.502 1048.55 189.417 1049.13 187.894L1049.94 185.714L1035.31 144.538H1045.4L1054.69 175H1055.11L1064.44 144.538H1074.55L1058.4 189.758C1057.64 191.894 1056.65 193.724 1055.4 195.247C1054.16 196.787 1052.64 197.96 1050.83 198.766C1049.05 199.589 1046.91 200 1044.43 200ZM1115.18 144.538H1081.12V184.874H1090.21V152.337H1106.02V184.874H1115.18V144.538ZM1124.96 200V144.538H1134.31V151.208H1134.86C1135.35 150.228 1136.04 149.186 1136.94 148.083C1137.83 146.963 1139.04 146.008 1140.56 145.221C1142.08 144.415 1144.03 144.013 1146.39 144.013C1149.51 144.013 1152.32 144.809 1154.82 146.402C1157.34 147.978 1159.34 150.315 1160.81 153.414C1162.29 156.495 1163.04 160.277 1163.04 164.758C1163.04 169.188 1162.31 172.952 1160.86 176.05C1159.41 179.149 1157.43 181.513 1154.92 183.141C1152.42 184.769 1149.58 185.583 1146.42 185.583C1144.1 185.583 1142.19 185.198 1140.66 184.428C1139.14 183.657 1137.92 182.729 1136.99 181.644C1136.08 180.541 1135.37 179.499 1134.86 178.519H1134.47V200H1124.96ZM1134.28 164.706C1134.28 167.314 1134.65 169.599 1135.39 171.56C1136.14 173.521 1137.22 175.053 1138.62 176.155C1140.03 177.241 1141.75 177.784 1143.76 177.784C1145.86 177.784 1147.62 177.223 1149.04 176.103C1150.46 174.965 1151.53 173.416 1152.24 171.455C1152.98 169.477 1153.35 167.227 1153.35 164.706C1153.35 162.202 1152.99 159.979 1152.27 158.036C1151.55 156.092 1150.49 154.569 1149.07 153.466C1147.65 152.363 1145.88 151.812 1143.76 151.812C1141.73 151.812 1140.01 152.346 1138.59 153.414C1137.17 154.482 1136.09 155.979 1135.36 157.904C1134.64 159.83 1134.28 162.097 1134.28 164.706ZM1175.88 184.322C1177.93 185.233 1180.23 185.688 1182.79 185.688C1184.89 185.688 1186.72 185.399 1188.27 184.821C1189.85 184.226 1191.15 183.447 1192.19 182.484C1193.24 181.504 1194.05 180.453 1194.63 179.333H1194.94V184.874H1204.08V157.878C1204.08 155.2 1203.59 152.967 1202.61 151.182C1201.65 149.396 1200.37 147.987 1198.78 146.954C1197.19 145.903 1195.43 145.151 1193.5 144.695C1191.57 144.24 1189.64 144.013 1187.7 144.013C1184.88 144.013 1182.3 144.433 1179.98 145.273C1177.65 146.096 1175.68 147.339 1174.07 149.002C1172.46 150.648 1171.3 152.696 1170.6 155.147L1179.48 156.408C1179.95 155.025 1180.86 153.825 1182.21 152.81C1183.57 151.794 1185.42 151.287 1187.75 151.287C1189.96 151.287 1191.64 151.829 1192.82 152.915C1193.99 154 1194.58 155.532 1194.58 157.511V157.668C1194.58 158.578 1194.24 159.252 1193.55 159.69C1192.89 160.11 1191.82 160.425 1190.35 160.636C1188.88 160.828 1186.96 161.047 1184.6 161.292C1182.64 161.502 1180.74 161.844 1178.9 162.316C1177.08 162.771 1175.44 163.445 1173.99 164.338C1172.54 165.231 1171.39 166.422 1170.55 167.91C1169.71 169.398 1169.29 171.28 1169.29 173.556C1169.29 176.199 1169.87 178.423 1171.05 180.226C1172.24 182.029 1173.85 183.395 1175.88 184.322ZM1190.22 177.574C1188.82 178.326 1187.16 178.703 1185.25 178.703C1183.28 178.703 1181.65 178.256 1180.37 177.363C1179.09 176.471 1178.45 175.149 1178.45 173.398C1178.45 172.173 1178.78 171.175 1179.42 170.404C1180.07 169.617 1180.96 169.004 1182.08 168.566C1183.2 168.129 1184.47 167.813 1185.88 167.621C1186.52 167.533 1187.26 167.428 1188.12 167.306C1188.97 167.183 1189.84 167.043 1190.72 166.886C1191.59 166.728 1192.38 166.544 1193.08 166.334C1193.8 166.124 1194.31 165.896 1194.6 165.651V170.404C1194.6 171.893 1194.22 173.267 1193.45 174.527C1192.69 175.788 1191.62 176.803 1190.22 177.574ZM1213.64 144.538H1230.58C1235.36 144.538 1239.13 145.492 1241.9 147.4C1244.68 149.308 1246.07 151.97 1246.07 155.383C1246.07 157.642 1245.29 159.489 1243.71 160.924C1242.15 162.342 1240.03 163.297 1237.33 163.787C1239.45 163.962 1241.3 164.496 1242.9 165.389C1244.51 166.282 1245.77 167.454 1246.68 168.908C1247.59 170.361 1248.04 172.033 1248.04 173.923C1248.04 176.147 1247.46 178.081 1246.28 179.727C1245.13 181.355 1243.44 182.624 1241.22 183.535C1239.01 184.428 1236.33 184.874 1233.18 184.874H1213.64V144.538ZM1222.54 177.39H1233.18C1234.93 177.39 1236.3 176.978 1237.3 176.155C1238.3 175.315 1238.8 174.177 1238.8 172.742C1238.8 171.078 1238.3 169.774 1237.3 168.829C1236.3 167.866 1234.93 167.384 1233.18 167.384H1222.54V177.39ZM1222.54 161.24H1230.76C1232.06 161.24 1233.17 161.056 1234.1 160.688C1235.03 160.303 1235.74 159.769 1236.23 159.086C1236.72 158.386 1236.96 157.554 1236.96 156.591C1236.96 155.208 1236.39 154.123 1235.25 153.335C1234.13 152.547 1232.58 152.153 1230.58 152.153H1222.54V161.24ZM1254.44 177.048H1253.05L1253.1 184.874H1256.05C1258.22 184.874 1260.1 184.489 1261.69 183.718C1263.29 182.931 1264.61 181.74 1265.66 180.147C1266.73 178.554 1267.55 176.532 1268.13 174.081C1268.72 171.612 1269.1 168.697 1269.26 165.336L1269.89 152.337H1281.47V184.874H1290.66V144.538H1261.25L1260.54 162.395C1260.43 165.214 1260.25 167.568 1259.99 169.459C1259.72 171.35 1259.36 172.855 1258.88 173.976C1258.41 175.079 1257.81 175.867 1257.1 176.339C1256.38 176.812 1255.49 177.048 1254.44 177.048ZM1318.09 185.662C1314.04 185.662 1310.55 184.821 1307.61 183.141C1304.69 181.443 1302.44 179.044 1300.86 175.945C1299.28 172.829 1298.5 169.161 1298.5 164.942C1298.5 160.793 1299.28 157.152 1300.86 154.018C1302.45 150.867 1304.68 148.416 1307.53 146.665C1310.38 144.897 1313.74 144.013 1317.59 144.013C1320.07 144.013 1322.42 144.415 1324.63 145.221C1326.85 146.008 1328.81 147.234 1330.51 148.897C1332.22 150.56 1333.57 152.679 1334.55 155.252C1335.53 157.808 1336.02 160.854 1336.02 164.391V167.306H1307.93C1307.95 169.551 1308.38 171.485 1309.21 173.109C1310.07 174.772 1311.27 176.05 1312.81 176.943C1314.35 177.819 1316.15 178.256 1318.22 178.256C1319.6 178.256 1320.85 178.064 1321.97 177.679C1323.09 177.276 1324.07 176.689 1324.89 175.919C1325.71 175.149 1326.33 174.195 1326.75 173.057L1335.63 174.055C1335.07 176.401 1334 178.449 1332.42 180.2C1330.87 181.933 1328.87 183.281 1326.44 184.244C1324 185.189 1321.22 185.662 1318.09 185.662ZM1309.16 156.513C1308.44 157.856 1308.03 159.318 1307.94 160.898H1326.91C1326.89 159.077 1326.5 157.458 1325.73 156.04C1324.96 154.604 1323.88 153.475 1322.5 152.652C1321.13 151.829 1319.54 151.418 1317.72 151.418C1315.78 151.418 1314.07 151.891 1312.6 152.836C1311.13 153.764 1309.98 154.99 1309.16 156.513ZM1368.85 168.566H1353.23V184.874H1344.06V144.538H1353.23V160.767H1368.85V144.538H1377.99V184.874H1368.85V168.566ZM1412.93 144.538H1422.7V184.874H1413.5V157.379L1397.41 184.874H1387.61V144.538H1396.78V172.006L1412.93 144.538ZM1447.88 169.695H1456.3V184.874H1465.2V144.538H1447.69C1444.4 144.538 1441.55 145.072 1439.15 146.14C1436.77 147.19 1434.93 148.678 1433.64 150.604C1432.36 152.512 1431.72 154.762 1431.72 157.353C1431.72 159.839 1432.35 162.01 1433.61 163.866C1434.87 165.721 1436.68 167.157 1439.02 168.172C1439.11 168.21 1439.2 168.247 1439.28 168.283L1430.25 184.874H1439.6L1447.88 169.695ZM1456.3 162.763V152.258H1447.69C1445.5 152.258 1443.82 152.766 1442.65 153.782C1441.47 154.797 1440.9 156.057 1440.91 157.563C1440.9 159.069 1441.45 160.312 1442.57 161.292C1443.69 162.272 1445.29 162.763 1447.37 162.763H1456.3Z" fill="black"/>
</svg>
