<?xml version="1.0" encoding="utf-8"?>
<!-- Generator: Adobe Illustrator 17.1.0, SVG Export Plug-In . SVG Version: 6.00 Build 0)  -->
<!DOCTYPE svg PUBLIC "-//W3C//DTD SVG 1.1//EN" "http://www.w3.org/Graphics/SVG/1.1/DTD/svg11.dtd">
<svg version="1.1" id="Слой_1" xmlns="http://www.w3.org/2000/svg" xmlns:xlink="http://www.w3.org/1999/xlink" x="0px" y="0px"
	 viewBox="0 0 186 188" enable-background="new 0 0 186 188" xml:space="preserve">
<g>
	<polygon points="40.5,137.2 72.7,128.6 72.7,96.5 40.5,105.1 	"/>
	<polygon points="4.4,183.1 36.5,142.4 4.4,151 	"/>
	<polygon points="40.5,64.8 72.7,56.2 72.7,24.1 40.5,32.7 	"/>
	<polygon points="4.4,74.5 36.5,65.9 36.5,33.8 4.4,42.4 	"/>
	<polygon points="4.4,110.7 36.5,102.1 36.5,70 4.4,78.6 	"/>
	<polygon points="4.4,146.9 36.5,138.3 36.5,106.2 4.4,114.8 	"/>
	<polygon points="112.9,45.5 145.1,36.8 145.1,4.7 112.9,13.3 	"/>
	<polygon points="76.7,55.1 108.9,46.5 76.7,23 	"/>
	<polygon points="76.7,91.3 108.9,82.7 108.9,50.6 76.7,59.2 	"/>
	<polygon points="76.7,127.5 108.9,86.8 76.7,95.4 	"/>
	<polygon points="149.1,3.6 149.1,35.8 181.3,27.1 	"/>
	<polygon points="149.1,71.9 181.3,63.3 181.3,31.2 149.1,39.8 	"/>
	<polygon points="181.3,99.5 181.3,67.4 149.1,76 	"/>
</g>
</svg>
