<svg xmlns="http://www.w3.org/2000/svg" xmlns:xlink="http://www.w3.org/1999/xlink" viewBox="0 0 600 600">
  <defs>
    <style>
      .cls-1 {
        clip-path: url(#clip-illustration-mobile);
      }

      .cls-2 {
        fill: #f8f8ff;
      }

      .cls-3 {
        fill: #d6d6ea;
      }

      .cls-12, .cls-4 {
        fill: none;
      }

      .cls-4 {
        stroke: #1b1823;
      }

      .cls-5 {
        fill: #ffb5a1;
      }

      .cls-6 {
        fill: #d18571;
      }

      .cls-7 {
        fill: #432072;
      }

      .cls-8 {
        fill: #1b1823;
      }

      .cls-9 {
        fill: #8888e0;
      }

      .cls-10 {
        fill: #f5ccb6;
      }

      .cls-11 {
        fill: #694c90;
      }

      .cls-12 {
        stroke: #432072;
      }

      .cls-13 {
        fill: #fff;
      }
    </style>
    <clipPath id="clip-illustration-mobile">
      <rect width="600" height="600"/>
    </clipPath>
  </defs>
  <g id="illustration-mobile" class="cls-1">
    <rect class="cls-13" width="600" height="600"/>
    <rect id="Rectangle_61" data-name="Rectangle 61" class="cls-2" width="600" height="362" transform="translate(0 109)"/>
    <g id="Group_2" data-name="Group 2" transform="translate(-573.495 -275.261)">
      <path id="Path_43" data-name="Path 43" class="cls-3" d="M974.029,501.045s63.815,161.366,232.238,162.113,157.561-359.281,84.758-374.874-46.818,147.742-79.354,218.436S974.029,501.045,974.029,501.045Z" transform="translate(-219.309 100.359)"/>
      <path id="Path_40" data-name="Path 40" class="cls-4" d="M957.075,288.011h-89.8s-4.917,7.3,8.827,7.3,80.972,0,80.972,0Z" transform="translate(-156.078 265.518)"/>
      <path id="Path_37" data-name="Path 37" class="cls-5" d="M46.769,60.142S34.943,20.94,32.716,5.8,0,9.914,0,9.914,8.364,50.611,29.125,80,46.769,60.142,46.769,60.142Z" transform="matrix(-0.996, 0.087, -0.087, -0.996, 911.364, 450.795)"/>
      <path id="Intersection_5" data-name="Intersection 5" class="cls-6" d="M5.952.768C-2.705,8.972.633,34.483.633,34.483l14.9-8.177c-.31-3.361-.664-5.7-.664-5.7S11.127,11.25,6.925,0A6.356,6.356,0,0,0,5.952.768Z" transform="translate(874.4 415.567) rotate(180)"/>
      <path id="Path_22" data-name="Path 22" class="cls-6" d="M.865,23.836S34.343,41.248,43.957,36.444,59.958,2.366,56.6.784s-7.428-1.55-8.964,7.7c-.393.311-.188-7.148-4.927-6.141S27.32-1.44,24.3,3.23s-.814,5.138-.814,5.138S11.951-6.548,4.628,5.381.865,23.836.865,23.836Z" transform="translate(804.237 490.783) rotate(171)"/>
      <path id="Path_24" data-name="Path 24" class="cls-5" d="M0,13.024,28.128,0,40.467,21.127l6.826-3.948,14.7,35.558S51.351,69.607,37.433,67.646,2.791,41.1,2.791,41.1Z" transform="matrix(-0.996, 0.087, -0.087, -0.996, 880.882, 413.695)"/>
      <path id="Path_23" data-name="Path 23" class="cls-7" d="M45.619,49.46s-13.8,46.949-23.957,48.207S-.292,102.425.006,74.624,17.682-2.229,34.483.079s83.522,40.466,83.522,40.466L105.288,76.768Z" transform="translate(911.32 517.512) rotate(171)"/>
      <path id="Path_25" data-name="Path 25" class="cls-8" d="M26.491,6.573s-4.083,5.164-8.211,4.993-5.674-1.5-5.269-8.468S0,3.094,0,3.094,12.353,38.383,30.739,38.555,69.284,25.311,69.3,17.185,60.967,12.534,54.419,14.2s-5.612,8.644-14.464,6.068S26.491,6.573,26.491,6.573Z" transform="matrix(-0.996, 0.087, -0.087, -0.996, 875.33, 375.732)"/>
      <path id="Intersection_4" data-name="Intersection 4" class="cls-9" d="M95.874,181.225S16.374,73.533,1.573,9.34A76.044,76.044,0,0,1,0,0C54.647,1.136,92.339,12.5,117.052,24.387l-.477,0s13.617,70.272,4.789,118.9c-6.129,33.768-16.038,38.929-21.522,38.929A7.891,7.891,0,0,1,95.874,181.225Z" transform="translate(989.442 580.942) rotate(180)"/>
      <path id="Path_27" data-name="Path 27" class="cls-10" d="M781.477,481.521c11.822-6.244,16.788-.412,19.975,10.481s4.927,33.984,5.047,42.179-.2,21.182-16.228,19.787-16.56-6.564-17.543-11.328S769.655,487.765,781.477,481.521Z" transform="translate(30.243 253.03)"/>
      <path id="Path_30" data-name="Path 30" class="cls-10" d="M24.91,72.658C13.1,78.931,8.149,73.1,4.985,62.19S.119,28.155.011,19.946.247-1.273,16.242.1s16.522,6.549,17.5,11.32S36.721,66.386,24.91,72.658Z" transform="translate(689.553 788.351) rotate(-132)"/>
      <path id="Path_28" data-name="Path 28" class="cls-11" d="M3.63,22.571C-.693,19.66.048,0,.048,0l81.5.009,1.772,8.408S49.575,22.432,34.694,24.925c-3.935.629-5.062-2.75-5.941-7.85s-4.883-6.721-11.412-5.43S7.954,25.482,3.63,22.571Z" transform="matrix(-0.999, 0.035, -0.035, -0.999, 840.796, 812.203)"/>
      <path id="Path_29" data-name="Path 29" class="cls-11" d="M3.61,22.648C-.709,19.741.052.074.052.074L81.529,0l1.763,8.409S49.541,22.462,34.662,24.971c-3.934.633-5.057-2.746-5.931-7.846s-4.875-6.718-11.4-5.42S7.929,25.556,3.61,22.648Z" transform="matrix(-0.951, -0.309, 0.309, -0.951, 704.962, 788.714)"/>
      <path id="Path_15" data-name="Path 15" class="cls-7" d="M26.451,138.758c23.44-6.91,113.45-71.618,119.391-97.849S132.308-.291,114.333,0s-102.066,71.8-110.9,88.7S3.011,145.668,26.451,138.758Z" transform="matrix(-0.978, 0.208, -0.208, -0.978, 846.88, 733.243)"/>
      <path id="Subtraction_1" data-name="Subtraction 1" class="cls-11" d="M182.339,0h0c-3.689,0-7.616.325-11.414.64-2.481.206-5.044.418-7.52.538-16.256.791-18.33,8.581-22.875,25.649-1.048,3.935-.5,11.554,1.636,22.645,1.707,8.873,4.425,19.976,8.079,33,6.222,22.178,13.092,42.5,13.161,42.7H63.522a101.375,101.375,0,0,0-19.9,3.417,84.435,84.435,0,0,0-17.47,6.81A54.11,54.11,0,0,0,10.25,147.869C1.971,157.61-1.318,170,.475,184.7a352.752,352.752,0,0,1,69.609,7.828,235.089,235.089,0,0,1,47.66,15.778c-.06-.355-.094-.541-.095-.544l.036,0a728.247,728.247,0,0,0,79.134-5.73c8.909-1.173,15.943-2.978,21.5-5.52a27.845,27.845,0,0,0,11.242-8.6,25.372,25.372,0,0,0,4.4-10.706,81.187,81.187,0,0,0,.984-11.843c.064-1.856.13-3.775.254-5.656.554-8.394.9-26.282-3.012-51.769-4.68-30.509-13.946-62.758-27.538-95.851a18.117,18.117,0,0,0-9.177-9.77C192.062.738,187.886,0,182.339,0Z" transform="translate(989.768 764.32) rotate(180)"/>
      <path id="Path_21" data-name="Path 21" class="cls-5" d="M60.376,14.336S24.686-4.227,14.438.893-2.618,37.221.966,38.908,8.885,40.56,10.522,30.7c.419-.331-1.135,13.068,3.916,11.994s18.98,1.2,22.2-3.782-5.72-14.992-5.72-14.992S48.56,46.726,56.366,34.01,60.376,14.336,60.376,14.336Z" transform="translate(732.813 517.176) rotate(-21)"/>
      <path id="Intersection_3" data-name="Intersection 3" class="cls-7" d="M9.139,17.1A68.8,68.8,0,0,1,35.858,0,221.556,221.556,0,0,1,68.84,12.081c.508,2.881,2.9,16.9,4.757,35.63-1.248,8.166-28,5.712-30.682,16.985-6.06,25.446,7.748,57.185-2.678,58.274a16.268,16.268,0,0,1-1.685.088C8.655,123.065-13.134,40.027,9.139,17.1Z" transform="translate(940.861 568.091) rotate(180)"/>
      <path id="Path_20" data-name="Path 20" class="cls-9" d="M100.078,69.74S104.935,1.38,116.817.074s36.947,14.659,36.6,43.533-20.666,79.817-40.314,77.42S0,76.824,0,76.824L14.87,39.2Z" transform="translate(764.744 473.662) rotate(-21)"/>
      <path id="Path_34" data-name="Path 34" class="cls-4" d="M0,0,98.114,36.692" transform="translate(788.512 508.801) rotate(-22)"/>
      <path id="Path_35" data-name="Path 35" class="cls-4" d="M766.013,423.132s19.517,54.8,28.931,96.464" transform="translate(58.795 195.388)"/>
      <path id="Path_38" data-name="Path 38" class="cls-4" d="M971.87,390.914l-18.395-6.637" transform="translate(-148.738 241.731)"/>
      <path id="Path_39" data-name="Path 39" class="cls-4" d="M0,28.47,10.9,0" transform="translate(805.658 521.599) rotate(-22)"/>
      <path id="Path_41" data-name="Path 41" class="cls-4" d="M865.828,309.472l-36.291-85.384" transform="translate(-155.486 244.057)"/>
      <path id="Path_44" data-name="Path 44" class="cls-12" d="M1041.6,461.225l-33.027,81.568" transform="translate(-130.239 267.564)"/>
      <path id="Path_45" data-name="Path 45" class="cls-12" d="M1104.941,468.258l27.189,68.469" transform="translate(-97.887 269.926)"/>
      <path id="Path_46" data-name="Path 46" class="cls-4" d="M681.606,400.789s-.03,35.1,13.117,53.537" transform="translate(190.393 44.245)"/>
    </g>
  </g>
</svg>
