<svg xmlns="http://www.w3.org/2000/svg" xmlns:xlink="http://www.w3.org/1999/xlink" viewBox="0 0 1200 500">
  <defs>
    <style>
      .cls-1 {
        clip-path: url(#clip-illustrationScreens);
      }

      .cls-2 {
        fill: #d6d6ea;
      }

      .cls-3 {
        fill: #adadd6;
      }
    </style>
    <clipPath id="clip-illustrationScreens">
      <rect width="1200" height="500"/>
    </clipPath>
  </defs>
  <g id="illustrationScreens" class="cls-1">
    <g id="Group_22" data-name="Group 22">
      <rect id="Rectangle_1" data-name="Rectangle 1" class="cls-2" width="157.612" height="91.31" rx="3" transform="translate(86 62)"/>
      <rect id="Rectangle_3" data-name="Rectangle 3" class="cls-2" width="157.612" height="91.31" rx="3" transform="translate(953 110)"/>
      <rect id="Rectangle_5" data-name="Rectangle 5" class="cls-2" width="48.505" height="91.31" rx="3" transform="translate(206 315)"/>
      <rect id="Rectangle_7" data-name="Rectangle 7" class="cls-2" width="48.505" height="91.31" rx="3" transform="translate(885 227)"/>
      <rect id="Rectangle_9" data-name="Rectangle 9" class="cls-2" width="84.729" height="119.548" rx="3" transform="translate(1050 315.762)"/>
      <path id="Rectangle_2" data-name="Rectangle 2" class="cls-3" d="M3,0H154.612a3,3,0,0,1,3,3V15.121a0,0,0,0,1,0,0H0a0,0,0,0,1,0,0V3A3,3,0,0,1,3,0Z" transform="translate(86 62)"/>
      <path id="Rectangle_4" data-name="Rectangle 4" class="cls-3" d="M3,0H154.612a3,3,0,0,1,3,3V15.121a0,0,0,0,1,0,0H0a0,0,0,0,1,0,0V3A3,3,0,0,1,3,0Z" transform="translate(953 110)"/>
      <path id="Rectangle_6" data-name="Rectangle 6" class="cls-3" d="M3,0H45.505a3,3,0,0,1,3,3V15.121a0,0,0,0,1,0,0H0a0,0,0,0,1,0,0V3A3,3,0,0,1,3,0Z" transform="translate(206 315)"/>
      <path id="Rectangle_8" data-name="Rectangle 8" class="cls-3" d="M3,0H45.505a3,3,0,0,1,3,3V15.121a0,0,0,0,1,0,0H0a0,0,0,0,1,0,0V3A3,3,0,0,1,3,0Z" transform="translate(885 227)"/>
      <path id="Rectangle_10" data-name="Rectangle 10" class="cls-3" d="M3,0H81.729a3,3,0,0,1,3,3V15.121a0,0,0,0,1,0,0H0a0,0,0,0,1,0,0V3A3,3,0,0,1,3,0Z" transform="translate(1050 315.762)"/>
      <circle id="Ellipse_1" data-name="Ellipse 1" class="cls-2" cx="2.908" cy="2.908" r="2.908" transform="translate(90.653 66.653)"/>
      <circle id="Ellipse_4" data-name="Ellipse 4" class="cls-2" cx="2.908" cy="2.908" r="2.908" transform="translate(957.653 114.653)"/>
      <circle id="Ellipse_7" data-name="Ellipse 7" class="cls-3" cx="2.908" cy="2.908" r="2.908" transform="translate(219.653 392.653)"/>
      <circle id="Ellipse_2" data-name="Ellipse 2" class="cls-2" cx="2.908" cy="2.908" r="2.908" transform="translate(98.795 66.653)"/>
      <circle id="Ellipse_5" data-name="Ellipse 5" class="cls-2" cx="2.908" cy="2.908" r="2.908" transform="translate(965.795 114.653)"/>
      <circle id="Ellipse_8" data-name="Ellipse 8" class="cls-3" cx="2.908" cy="2.908" r="2.908" transform="translate(227.795 392.653)"/>
      <circle id="Ellipse_11" data-name="Ellipse 11" class="cls-3" cx="4.908" cy="4.908" r="4.908" transform="translate(904.795 300.653)"/>
      <circle id="Ellipse_12" data-name="Ellipse 12" class="cls-3" cx="4.908" cy="4.908" r="4.908" transform="translate(1087.795 417.653)"/>
      <circle id="Ellipse_3" data-name="Ellipse 3" class="cls-2" cx="2.908" cy="2.908" r="2.908" transform="translate(106.937 66.653)"/>
      <circle id="Ellipse_6" data-name="Ellipse 6" class="cls-2" cx="2.908" cy="2.908" r="2.908" transform="translate(973.937 114.653)"/>
      <circle id="Ellipse_9" data-name="Ellipse 9" class="cls-3" cx="2.908" cy="2.908" r="2.908" transform="translate(235.937 392.653)"/>
    </g>
  </g>
</svg>
