<svg xmlns="http://www.w3.org/2000/svg" xmlns:xlink="http://www.w3.org/1999/xlink" viewBox="0 0 1200 500">
  <defs>
    <style>
      .cls-1 {
        clip-path: url(#clip-illustration);
      }

      .cls-2 {
        fill: #f8f8ff;
      }

      .cls-13, .cls-16, .cls-3, .cls-5 {
        fill: none;
      }

      .cls-3 {
        stroke: #d6d6ea;
      }

      .cls-4 {
        fill: #d6d6ea;
      }

      .cls-5 {
        stroke: #1b1823;
      }

      .cls-6 {
        fill: #ffb5a1;
      }

      .cls-7 {
        fill: #d18571;
      }

      .cls-8 {
        fill: #432072;
      }

      .cls-9 {
        fill: #1b1823;
      }

      .cls-10 {
        fill: #8888e0;
      }

      .cls-11 {
        fill: #f5ccb6;
      }

      .cls-12 {
        fill: #694c90;
      }

      .cls-13 {
        stroke: #432072;
      }

      .cls-14 {
        fill: #adadd6;
      }

      .cls-15 {
        stroke: none;
      }

      .cls-17 {
        fill: #fff;
      }
    </style>
    <clipPath id="clip-illustration">
      <rect width="1200" height="500"/>
    </clipPath>
  </defs>
  <g id="illustration" class="cls-1">
    <rect class="cls-17" width="1200" height="500"/>
    <g id="Group_2" data-name="Group 2" transform="translate(-71 -223)">
      <rect id="Rectangle_28" data-name="Rectangle 28" class="cls-2" width="1088" height="266" transform="translate(139 354)"/>
      <g id="Rectangle_11" data-name="Rectangle 11" class="cls-3" transform="translate(213 437)">
        <rect class="cls-15" width="203.929" height="122.655" rx="3"/>
        <rect class="cls-16" x="0.5" y="0.5" width="202.929" height="121.655" rx="2.5"/>
      </g>
      <g id="Rectangle_15" data-name="Rectangle 15" class="cls-3" transform="translate(916 269)">
        <rect class="cls-15" width="203.929" height="122.655" rx="3"/>
        <rect class="cls-16" x="0.5" y="0.5" width="202.929" height="121.655" rx="2.5"/>
      </g>
      <g id="Rectangle_12" data-name="Rectangle 12" class="cls-3" transform="translate(223.221 488.106)">
        <rect class="cls-15" width="122.159" height="61.328" rx="3"/>
        <rect class="cls-16" x="0.5" y="0.5" width="121.159" height="60.328" rx="2.5"/>
      </g>
      <g id="Rectangle_17" data-name="Rectangle 17" class="cls-3" transform="translate(926.221 320.106)">
        <rect class="cls-15" width="122.159" height="61.328" rx="3"/>
        <rect class="cls-16" x="0.5" y="0.5" width="121.159" height="60.328" rx="2.5"/>
      </g>
      <g id="Rectangle_14" data-name="Rectangle 14" class="cls-3" transform="translate(223.221 447.221)">
        <rect class="cls-15" width="183.486" height="30.664" rx="3"/>
        <rect class="cls-16" x="0.5" y="0.5" width="182.486" height="29.664" rx="2.5"/>
      </g>
      <g id="Rectangle_16" data-name="Rectangle 16" class="cls-3" transform="translate(926.221 279.221)">
        <rect class="cls-15" width="183.486" height="30.664" rx="3"/>
        <rect class="cls-16" x="0.5" y="0.5" width="182.486" height="29.664" rx="2.5"/>
      </g>
      <g id="Rectangle_13" data-name="Rectangle 13" class="cls-3" transform="translate(356.098 488.106)">
        <rect class="cls-15" width="50.61" height="61.328" rx="3"/>
        <rect class="cls-16" x="0.5" y="0.5" width="49.61" height="60.328" rx="2.5"/>
      </g>
      <g id="Rectangle_18" data-name="Rectangle 18" class="cls-3" transform="translate(1059.098 320.106)">
        <rect class="cls-15" width="50.61" height="61.328" rx="3"/>
        <rect class="cls-16" x="0.5" y="0.5" width="49.61" height="60.328" rx="2.5"/>
      </g>
      <path id="Path_43" data-name="Path 43" class="cls-4" d="M974.029,447.307S1021.8,568.115,1147.9,568.674,1265.855,299.7,1211.35,288.022,1176.3,398.63,1151.941,451.555,974.029,447.307,974.029,447.307Z" transform="translate(-380.225 70.55)"/>
      <path id="Path_40" data-name="Path 40" class="cls-5" d="M934.289,288.011H867.061s-3.681,5.466,6.609,5.462,60.62,0,60.62,0Z" transform="translate(-305.84 194.003)"/>
      <path id="Path_37" data-name="Path 37" class="cls-6" d="M35,45.04S26.144,15.691,24.477,4.36-.016,7.437-.016,7.437s6.262,30.468,21.8,52.474S35,45.04,35,45.04Z" transform="matrix(-0.996, 0.087, -0.087, -0.996, 711.062, 405.118)"/>
      <path id="Intersection_5" data-name="Intersection 5" class="cls-7" d="M4.456.575C-2.025,6.717.474,25.816.474,25.816l11.155-6.122c-.232-2.516-.5-4.265-.5-4.265S8.33,8.422,5.185,0A4.759,4.759,0,0,0,4.456.575Z" transform="translate(683.404 378.728) rotate(180)"/>
      <path id="Path_22" data-name="Path 22" class="cls-7" d="M.648,19.957S25.712,32.993,32.909,29.4,44.888,3.883,42.372,2.7s-5.561-1.16-6.711,5.768c-.294.233-.141-5.352-3.688-4.6s-11.519-2.835-13.78.661-.609,3.846-.609,3.846S8.948-2.79,3.466,6.141.648,19.957.648,19.957Z" transform="translate(631.207 437.126) rotate(171)"/>
      <path id="Path_24" data-name="Path 24" class="cls-6" d="M-.011,9.768,21.047.018l9.238,15.817,5.11-2.956L46.4,39.5S38.433,52.13,28.013,50.662,2.079,30.791,2.079,30.791Z" transform="matrix(-0.996, 0.087, -0.087, -0.996, 688.247, 377.346)"/>
      <path id="Path_23" data-name="Path 23" class="cls-8" d="M34.153,37.033S23.824,72.181,16.218,73.123-.219,76.685,0,55.872,13.237-1.665,25.816.063s62.529,30.3,62.529,30.3L78.824,57.477Z" transform="translate(711.044 455.054) rotate(171)"/>
      <path id="Path_25" data-name="Path 25" class="cls-9" d="M19.826,5.062S16.769,8.928,13.679,8.8,9.43,7.678,9.734,2.461s-9.741,0-9.741,0S9.241,28.877,23.006,29.006s28.857-9.916,28.868-16-6.237-3.482-11.14-2.232-4.2,6.472-10.829,4.543S19.826,5.062,19.826,5.062Z" transform="matrix(-0.996, 0.087, -0.087, -0.996, 684.105, 349.047)"/>
      <path id="Intersection_4" data-name="Intersection 4" class="cls-10" d="M71.666,134.684S12.148,54.06,1.067,6A56.931,56.931,0,0,1-.111-.991C40.8-.14,69.02,8.37,87.521,17.266l-.357,0s10.194,52.61,3.586,89.017c-4.588,25.281-12.007,29.144-16.112,29.145A5.908,5.908,0,0,1,71.666,134.684Z" transform="translate(769.42 501.546) rotate(180)"/>
      <path id="Path_27" data-name="Path 27" class="cls-11" d="M779.078,480.878c8.85-4.675,12.569-.308,14.954,7.847s3.688,25.443,3.779,31.578-.152,15.858-12.149,14.813-12.4-4.914-13.134-8.481S770.227,485.553,779.078,480.878Z" transform="translate(-142.6 136.661)"/>
      <path id="Path_30" data-name="Path 30" class="cls-11" d="M18.714,54.42c-8.842,4.7-12.548.328-14.917-7.837S.155,21.1.074,14.957.251-.929,12.225.1,24.594,5,25.323,8.574,27.557,49.724,18.714,54.42Z" transform="translate(545.043 657.881) rotate(-132)"/>
      <path id="Path_28" data-name="Path 28" class="cls-12" d="M2.716,16.9C-.521,14.725.034.007.034.007L61.051.013l1.326,6.295S37.113,16.8,25.972,18.667c-2.946.471-3.789-2.059-4.447-5.877s-3.656-5.032-8.544-4.065S5.953,19.084,2.716,16.9Z" transform="matrix(-0.999, 0.035, -0.035, -0.999, 658.244, 675.68)"/>
      <path id="Path_29" data-name="Path 29" class="cls-12" d="M2.717,16.957C-.516,14.78.053.057.053.057l61-.055,1.32,6.3S37.1,16.818,25.965,18.7c-2.945.474-3.786-2.056-4.44-5.874s-3.65-5.03-8.537-4.058S5.951,19.134,2.717,16.957Z" transform="matrix(-0.951, -0.309, 0.309, -0.951, 556.566, 658.093)"/>
      <path id="Path_15" data-name="Path 15" class="cls-8" d="M19.787,104.005c17.548-5.173,84.935-53.617,89.383-73.255S99.037-.094,85.58.127,9.168,53.884,2.553,66.533,2.238,109.179,19.787,104.005Z" transform="matrix(-0.978, 0.208, -0.208, -0.978, 662.81, 616.683)"/>
      <path id="Subtraction_1" data-name="Subtraction 1" class="cls-12" d="M136.509,0h0c-2.762,0-5.7.244-8.545.479-1.858.154-3.776.313-5.63.4-12.17.592-13.723,6.424-17.125,19.2-.785,2.946-.373,8.65,1.225,16.954,1.278,6.643,3.313,14.955,6.048,24.7,4.658,16.6,9.8,31.819,9.853,31.971H47.556a75.894,75.894,0,0,0-14.9,2.559,63.213,63.213,0,0,0-13.079,5.1A40.51,40.51,0,0,0,7.673,110.7C1.475,118-.987,127.274.356,138.279a264.091,264.091,0,0,1,52.114,5.86A176,176,0,0,1,88.15,155.952c-.045-.266-.071-.4-.071-.407h.027a545.206,545.206,0,0,0,59.244-4.29,56.766,56.766,0,0,0,16.1-4.132,20.846,20.846,0,0,0,8.416-6.437,19,19,0,0,0,3.3-8.015,60.78,60.78,0,0,0,.737-8.867c.048-1.389.1-2.826.19-4.234.414-6.284.673-19.676-2.255-38.757-3.5-22.841-10.44-46.984-20.617-71.759a13.563,13.563,0,0,0-6.871-7.315A23.045,23.045,0,0,0,136.509,0Z" transform="translate(769.775 639.825) rotate(180)"/>
      <path id="Path_21" data-name="Path 21" class="cls-6" d="M848.354,348.679s-26.719-13.9-34.392-10.064-12.769,27.2-10.085,28.46,5.928,1.237,7.154-6.148c.313-.248-.85,9.783,2.932,8.979s14.21.9,16.619-2.831-4.282-11.224-4.282-11.224,13.209,17.077,19.052,7.557S848.354,348.679,848.354,348.679Z" transform="translate(-293.513 427.124) rotate(-21)"/>
      <path id="Intersection_3" data-name="Intersection 3" class="cls-8" d="M-12.1,4.447a51.508,51.508,0,0,1,20-12.8A165.87,165.87,0,0,1,32.594.689c.38,2.157,2.172,12.655,3.562,26.675-.934,6.114-20.961,4.276-22.97,12.716-4.537,19.05,5.8,42.812-2.005,43.627a12.18,12.18,0,0,1-1.261.066C-12.464,83.778-28.777,21.611-12.1,4.447Z" transform="translate(714.216 484.562) rotate(180)"/>
      <path id="Path_20" data-name="Path 20" class="cls-10" d="M808.15,369.825s3.637-51.178,12.532-52.156,27.661,10.975,27.4,32.592-15.472,59.756-30.182,57.961-84.676-33.093-84.676-33.093l11.132-28.165Z" transform="translate(-197.039 388.468) rotate(-21)"/>
      <path id="Path_34" data-name="Path 34" class="cls-5" d="M755.517,341.845l73.454,27.47" transform="translate(-209.458 414.597) rotate(-22)"/>
      <path id="Path_35" data-name="Path 35" class="cls-5" d="M766.013,423.132s14.612,41.028,21.659,72.218" transform="translate(-119.737 107.539)"/>
      <path id="Path_38" data-name="Path 38" class="cls-5" d="M967.246,389.246l-13.771-4.969" transform="translate(-322.225 152)"/>
      <path id="Path_39" data-name="Path 39" class="cls-5" d="M931.474,295.549l8.162-21.314" transform="translate(-334.438 552.781) rotate(-22)"/>
      <path id="Path_41" data-name="Path 41" class="cls-5" d="M856.707,288.011l-27.169-63.923" transform="translate(-296.126 194.003)"/>
      <path id="Path_44" data-name="Path 44" class="cls-13" d="M1033.3,461.225l-24.726,61.066" transform="translate(-322.225 152)"/>
      <path id="Path_45" data-name="Path 45" class="cls-13" d="M1104.941,468.258l20.355,51.26" transform="translate(-322.225 152)"/>
      <rect id="Rectangle_1" data-name="Rectangle 1" class="cls-4" width="157.612" height="91.31" rx="3" transform="translate(157 285)"/>
      <rect id="Rectangle_3" data-name="Rectangle 3" class="cls-4" width="157.612" height="91.31" rx="3" transform="translate(1024 333)"/>
      <rect id="Rectangle_5" data-name="Rectangle 5" class="cls-4" width="48.505" height="91.31" rx="3" transform="translate(277 538)"/>
      <g id="Rectangle_19" data-name="Rectangle 19" class="cls-3" transform="translate(114.495 569.69)">
        <rect class="cls-15" width="47.505" height="88.31" rx="3"/>
        <rect class="cls-16" x="0.5" y="0.5" width="46.505" height="87.31" rx="2.5"/>
      </g>
      <g id="Rectangle_24" data-name="Rectangle 24" class="cls-3" transform="translate(984 520)">
        <rect class="cls-15" width="47.505" height="88.31" rx="3"/>
        <rect class="cls-16" x="0.5" y="0.5" width="46.505" height="87.31" rx="2.5"/>
      </g>
      <rect id="Rectangle_7" data-name="Rectangle 7" class="cls-4" width="48.505" height="91.31" rx="3" transform="translate(956 450)"/>
      <rect id="Rectangle_9" data-name="Rectangle 9" class="cls-4" width="84.729" height="119.548" rx="3" transform="translate(1121 538.762)"/>
      <path id="Rectangle_2" data-name="Rectangle 2" class="cls-14" d="M3,0H154.612a3,3,0,0,1,3,3V15.121a0,0,0,0,1,0,0H0a0,0,0,0,1,0,0V3A3,3,0,0,1,3,0Z" transform="translate(157 285)"/>
      <path id="Rectangle_4" data-name="Rectangle 4" class="cls-14" d="M3,0H154.612a3,3,0,0,1,3,3V15.121a0,0,0,0,1,0,0H0a0,0,0,0,1,0,0V3A3,3,0,0,1,3,0Z" transform="translate(1024 333)"/>
      <path id="Rectangle_6" data-name="Rectangle 6" class="cls-14" d="M3,0H45.505a3,3,0,0,1,3,3V15.121a0,0,0,0,1,0,0H0a0,0,0,0,1,0,0V3A3,3,0,0,1,3,0Z" transform="translate(277 538)"/>
      <path id="Rectangle_8" data-name="Rectangle 8" class="cls-14" d="M3,0H45.505a3,3,0,0,1,3,3V15.121a0,0,0,0,1,0,0H0a0,0,0,0,1,0,0V3A3,3,0,0,1,3,0Z" transform="translate(956 450)"/>
      <path id="Rectangle_10" data-name="Rectangle 10" class="cls-14" d="M3,0H81.729a3,3,0,0,1,3,3V15.121a0,0,0,0,1,0,0H0a0,0,0,0,1,0,0V3A3,3,0,0,1,3,0Z" transform="translate(1121 538.762)"/>
      <circle id="Ellipse_1" data-name="Ellipse 1" class="cls-4" cx="2.908" cy="2.908" r="2.908" transform="translate(161.653 289.653)"/>
      <circle id="Ellipse_4" data-name="Ellipse 4" class="cls-4" cx="2.908" cy="2.908" r="2.908" transform="translate(1028.653 337.653)"/>
      <circle id="Ellipse_7" data-name="Ellipse 7" class="cls-14" cx="2.908" cy="2.908" r="2.908" transform="translate(290.653 615.653)"/>
      <circle id="Ellipse_2" data-name="Ellipse 2" class="cls-4" cx="2.908" cy="2.908" r="2.908" transform="translate(169.795 289.653)"/>
      <circle id="Ellipse_5" data-name="Ellipse 5" class="cls-4" cx="2.908" cy="2.908" r="2.908" transform="translate(1036.795 337.653)"/>
      <circle id="Ellipse_8" data-name="Ellipse 8" class="cls-14" cx="2.908" cy="2.908" r="2.908" transform="translate(298.795 615.653)"/>
      <circle id="Ellipse_11" data-name="Ellipse 11" class="cls-14" cx="4.908" cy="4.908" r="4.908" transform="translate(975.795 523.653)"/>
      <circle id="Ellipse_12" data-name="Ellipse 12" class="cls-14" cx="4.908" cy="4.908" r="4.908" transform="translate(1158.795 640.653)"/>
      <circle id="Ellipse_3" data-name="Ellipse 3" class="cls-4" cx="2.908" cy="2.908" r="2.908" transform="translate(177.937 289.653)"/>
      <circle id="Ellipse_6" data-name="Ellipse 6" class="cls-4" cx="2.908" cy="2.908" r="2.908" transform="translate(1044.937 337.653)"/>
      <circle id="Ellipse_9" data-name="Ellipse 9" class="cls-14" cx="2.908" cy="2.908" r="2.908" transform="translate(306.937 615.653)"/>
      <g id="Rectangle_20" data-name="Rectangle 20" class="cls-3" transform="translate(122.99 577.69)">
        <rect class="cls-15" width="31.505" height="24.31" rx="3"/>
        <rect class="cls-16" x="0.5" y="0.5" width="30.505" height="23.31" rx="2.5"/>
      </g>
      <g id="Rectangle_25" data-name="Rectangle 25" class="cls-3" transform="translate(992.495 528)">
        <rect class="cls-15" width="31.505" height="24.31" rx="3"/>
        <rect class="cls-16" x="0.5" y="0.5" width="30.505" height="23.31" rx="2.5"/>
      </g>
      <g id="Rectangle_22" data-name="Rectangle 22" class="cls-3" transform="translate(122.99 609.69)">
        <rect class="cls-15" width="31.505" height="16.31" rx="3"/>
        <rect class="cls-16" x="0.5" y="0.5" width="30.505" height="15.31" rx="2.5"/>
      </g>
      <g id="Rectangle_26" data-name="Rectangle 26" class="cls-3" transform="translate(992.495 560)">
        <rect class="cls-15" width="31.505" height="16.31" rx="3"/>
        <rect class="cls-16" x="0.5" y="0.5" width="30.505" height="15.31" rx="2.5"/>
      </g>
      <g id="Rectangle_23" data-name="Rectangle 23" class="cls-3" transform="matrix(1, -0.017, 0.017, 1, 122.85, 634.55)">
        <rect class="cls-15" width="31.505" height="16.31" rx="3"/>
        <rect class="cls-16" x="0.5" y="0.5" width="30.505" height="15.31" rx="2.5"/>
      </g>
      <g id="Rectangle_27" data-name="Rectangle 27" class="cls-3" transform="matrix(1, -0.017, 0.017, 1, 992.355, 584.86)">
        <rect class="cls-15" width="31.505" height="16.31" rx="3"/>
        <rect class="cls-16" x="0.5" y="0.5" width="30.505" height="15.31" rx="2.5"/>
      </g>
      <path id="Path_46" data-name="Path 46" class="cls-5" d="M681.606,400.789s-.022,26.282,9.82,40.081"/>
    </g>
  </g>
</svg>
