<svg xmlns="http://www.w3.org/2000/svg" viewBox="0 0 80 80">
  <defs>
    <style>
      .cls-1 {
        fill: #d6d6ea;
      }

      .cls-2 {
        fill: #adadd6;
      }
    </style>
  </defs>
  <g id="Group_7" data-name="Group 7" transform="translate(-323 -2392)">
    <rect id="Rectangle_31" data-name="Rectangle 31" class="cls-1" width="80" height="80" rx="3" transform="translate(323 2392)"/>
    <path id="Rectangle_32" data-name="Rectangle 32" class="cls-2" d="M3,0H76.612a3,3,0,0,1,3,3V15.121a0,0,0,0,1,0,0H0a0,0,0,0,1,0,0V3A3,3,0,0,1,3,0Z" transform="translate(323 2392)"/>
    <circle id="Ellipse_13" data-name="Ellipse 13" class="cls-1" cx="2.908" cy="2.908" r="2.908" transform="translate(327.653 2396.653)"/>
    <circle id="Ellipse_14" data-name="Ellipse 14" class="cls-1" cx="2.908" cy="2.908" r="2.908" transform="translate(335.795 2396.653)"/>
    <circle id="Ellipse_15" data-name="Ellipse 15" class="cls-1" cx="2.908" cy="2.908" r="2.908" transform="translate(343.937 2396.653)"/>
    <path id="Path_48" data-name="Path 48" class="cls-2" d="M-6.223-9.773l6.187,5.2.07.633A7.965,7.965,0,0,1-2.426,2.25,9.314,9.314,0,0,1-8.965,4.5a8.046,8.046,0,0,1-6.891-3.234A12.888,12.888,0,0,1-17.965-6.4l.633.492q2.6,1.969,3.3,1.969a1,1,0,0,0,.984-.7A7.762,7.762,0,0,1-10.16-8.578,8.675,8.675,0,0,1-6.223-9.773ZM14.238-31.5a3.924,3.924,0,0,1,2.672.984,3.1,3.1,0,0,1,1.125,2.426,7.463,7.463,0,0,1-.984,3.34q-4.148,7.734-6.4,11.25a22.727,22.727,0,0,1-4.43,5.344A6.24,6.24,0,0,1,2.215-6.75,6.419,6.419,0,0,1,.668-6.961l-4.5-3.727a6.34,6.34,0,0,1-.633-2.742,5.475,5.475,0,0,1,.562-2.6,13.622,13.622,0,0,1,2.32-2.812q1.266-1.2,5.555-4.922,4.43-3.867,7.453-6.609A4.134,4.134,0,0,1,14.238-31.5Z" transform="translate(363 2451)"/>
  </g>
</svg>
