<svg xmlns="http://www.w3.org/2000/svg" viewBox="0 0 80 80">
  <defs>
    <style>
      .cls-1 {
        fill: #d6d6ea;
      }

      .cls-2 {
        fill: #adadd6;
      }
    </style>
  </defs>
  <g id="Group_10" data-name="Group 10" transform="translate(-653 -2392)">
    <rect id="Rectangle_37" data-name="Rectangle 37" class="cls-1" width="80" height="80" rx="3" transform="translate(653 2392)"/>
    <path id="Subtraction_2" data-name="Subtraction 2" class="cls-2" d="M57,60H3a3,3,0,0,1-3-3V3A3,3,0,0,1,3,0H57a3,3,0,0,1,3,3V57A3,3,0,0,1,57,60ZM30,17.1a2.981,2.981,0,0,0-2.122.879l-9.9,9.9a3,3,0,0,0,0,4.243l9.9,9.9a3,3,0,0,0,4.243,0l9.9-9.9a3,3,0,0,0,0-4.243l-9.9-9.9A2.979,2.979,0,0,0,30,17.1Z" transform="translate(663 2402)"/>
  </g>
</svg>
