<svg xmlns="http://www.w3.org/2000/svg" viewBox="0 0 80 80">
  <defs>
    <style>
      .cls-1 {
        fill: #d6d6ea;
      }

      .cls-2 {
        fill: #adadd6;
      }
    </style>
  </defs>
  <g id="Group_11" data-name="Group 11" transform="translate(-763 -2392)">
    <rect id="Rectangle_39" data-name="Rectangle 39" class="cls-1" width="80" height="80" rx="3" transform="translate(763 2392)"/>
    <path id="Rectangle_40" data-name="Rectangle 40" class="cls-2" d="M3,0H76.612a3,3,0,0,1,3,3V15.121a0,0,0,0,1,0,0H0a0,0,0,0,1,0,0V3A3,3,0,0,1,3,0Z" transform="translate(763 2392)"/>
    <circle id="Ellipse_25" data-name="Ellipse 25" class="cls-1" cx="2.908" cy="2.908" r="2.908" transform="translate(767.653 2403.653)"/>
    <circle id="Ellipse_28" data-name="Ellipse 28" class="cls-1" cx="2.908" cy="2.908" r="2.908" transform="translate(791.653 2403.653)"/>
    <circle id="Ellipse_31" data-name="Ellipse 31" class="cls-1" cx="2.908" cy="2.908" r="2.908" transform="translate(815.653 2403.653)"/>
    <circle id="Ellipse_26" data-name="Ellipse 26" class="cls-1" cx="2.908" cy="2.908" r="2.908" transform="translate(775.795 2403.653)"/>
    <circle id="Ellipse_29" data-name="Ellipse 29" class="cls-1" cx="2.908" cy="2.908" r="2.908" transform="translate(799.795 2403.653)"/>
    <circle id="Ellipse_32" data-name="Ellipse 32" class="cls-1" cx="2.908" cy="2.908" r="2.908" transform="translate(823.795 2403.653)"/>
    <circle id="Ellipse_27" data-name="Ellipse 27" class="cls-1" cx="2.908" cy="2.908" r="2.908" transform="translate(783.937 2403.653)"/>
    <circle id="Ellipse_30" data-name="Ellipse 30" class="cls-1" cx="2.908" cy="2.908" r="2.908" transform="translate(807.937 2403.653)"/>
    <circle id="Ellipse_33" data-name="Ellipse 33" class="cls-1" cx="2.908" cy="2.908" r="2.908" transform="translate(831.937 2403.653)"/>
    <rect id="Rectangle_47" data-name="Rectangle 47" class="cls-2" width="20" height="4" rx="2" transform="translate(769 2413)"/>
    <rect id="Rectangle_49" data-name="Rectangle 49" class="cls-2" width="42" height="4" rx="2" transform="translate(769 2429)"/>
    <rect id="Rectangle_51" data-name="Rectangle 51" class="cls-2" width="13" height="4" rx="2" transform="translate(769 2445)"/>
    <rect id="Rectangle_48" data-name="Rectangle 48" class="cls-2" width="50" height="4" rx="2" transform="translate(769 2421)"/>
    <rect id="Rectangle_50" data-name="Rectangle 50" class="cls-2" width="61" height="4" rx="2" transform="translate(769 2437)"/>
    <rect id="Rectangle_52" data-name="Rectangle 52" class="cls-2" width="55" height="4" rx="2" transform="translate(769 2453)"/>
    <rect id="Rectangle_53" data-name="Rectangle 53" class="cls-2" width="20" height="4" rx="2" transform="translate(769 2461)"/>
  </g>
</svg>
